<svg class="flex-shrink-0 w-5 h-5 text-gray-500 transition duration-75 dark:text-gray-400 group-hover:text-gray-900 dark:group-hover:text-white" aria-hidden="true" xmlns="http://www.w3.org/2000/svg" fill="currentColor" viewBox="0 0 18 20">
    <path d="M17 5.923A1 1 0 0 0 16 5h-3V4a4 4 0 1 0-8 0v1H2a1 1 0 0 0-1 .923L0.086 17.846A2 2 0 0 0 2.08 20h13.84a2 2 0 0 0 1.994-2.153L17 5.923ZM7 9a1 1 0 0 1-2 0V7h2v2Zm0-5a2 2 0 1 1 4 0v1H7V4Zm6 5a1 1 0 1 1-2 0V7h2v2Z" />
    <g id="SVGRepo_bgCarrier" stroke-width="0"></g>
    <g id="SVGRepo_tracerCarrier" stroke-linecap="round" stroke-linejoin="round"></g>
    <g id="SVGRepo_iconCarrier">
        <!-- Move the plus sign to the top right corner -->
        <path d="M16.19 2H7.81C4.17 2 2 4.17 2 7.81V16.18C2 19.83 4.17 22 7.81 22H16.18C19.82 22 21.99 19.83 21.99 16.19V7.81C22 4.17 19.83 2 16.19 2ZM16 12.75H12.75V16C12.75 16.41 12.41 16.75 12 16.75C11.59 16.75 11.25 16.41 11.25 16V12.75H8C7.59 12.75 7.25 12.41 7.25 12C7.25 11.59 7.59 11.25 8 11.25H11.25V8C11.25 7.59 11.59 7.25 12 7.25C12.41 7.25 12.75 7.59 12.75 8V11.25H16C16.41 11.25 16.75 11.59 16.75 12C16.75 12.41 16.41 12.75 16 12.75Z" fill="#292D32"></path>
    </g>
</svg>
